<svg xmlns="http://www.w3.org/2000/svg" version="1.1" xmlns:xlink="http://www.w3.org/1999/xlink" xmlns:svgjs="http://svgjs.dev/svgjs" width="100%" height="100%" viewBox="0 0 1000 600"><rect width="1000" height="600" x="0" y="0" fill="#ffff"/><g><rect width="333.3333333333333" height="333.3333333333333" y="197.01291637059717" fill="#000000" transform="matrix(0.7151410989709609,0,0,0.7151410989709609,0,39.917778520857)" x="174.790771484375"/><path d="M301.5505380947298 290.7596128022442L301.5505380947298 290.7596128022442Q308.02835114871766 290.7596128022442 320.2411087871994 289.7195969449525Q332.4835811644609 288.67958108766095 338.72367630821066 288.67958108766095L338.72367630821066 288.67958108766095Q361.9308872952039 288.67958108766095 374.26250388880464 297.23742585623205L374.26250388880464 297.23742585623205Q387.42613316823866 306.83528648209483 387.42613316823866 321.9006590434335L387.42613316823866 321.9006590434335Q387.42613316823866 331.7065228407547 381.7803328000841 340.4723707807841Q376.1345324319296 349.26793345959334 367.16068132044177 354.9137338277478L367.16068132044177 354.9137338277478L366.5366718060668 355.5377433421229Q366.5366718060668 355.74574651358114 367.3686844919001 356.16175285649786L367.3686844919001 356.16175285649786Q379.9083042569592 358.44978774253946 388.46614902553034 368.9093757930152Q397.02399379410144 379.33924910471126 397.02399379410144 393.33489106997865L397.02399379410144 393.33489106997865Q397.02399379410144 407.5682509454841 388.88215536844694 418.3249863837575Q380.7403169427925 429.081721822031 369.8647225494 433.86579476557245L369.8647225494 433.86579476557245Q359.2268460662456 438.6795824478937 344.1614735049069 438.6795824478937L344.1614735049069 438.6795824478937Q339.16939738990703 438.6795824478937 329.54182202526454 438.05557293351876Q319.94396139940176 437.4315634191438 314.9221705456222 437.4315634191438L314.9221705456222 437.4315634191438Q311.3564018920509 437.4315634191438 303.42256663785474 437.63956659060204Q295.4887313836586 437.8475697620604 290.466940529879 437.8475697620604L290.466940529879 437.8475697620604L290.05093418696237 437.8475697620604Q288.8029151582124 437.8475697620604 288.0600466887184 437.63956659060204Q287.3468929580041 437.4315634191438 286.6040244885101 436.18354439039376Q285.8908707577958 434.93552536164384 285.8908707577958 432.6177757368225L285.8908707577958 432.6177757368225Q285.8908707577958 430.12173767932256 287.4360371743434 429.4977281649476Q289.01091832967074 428.87371865057264 295.07272504074194 428.2497091361977L295.07272504074194 428.2497091361977Q296.9447535838669 428.0417059647393 297.9847694411585 427.83370279328096L297.9847694411585 427.83370279328096Q299.47050638014656 427.6256996218227 300.18366011086084 427.29883749524527Q300.92652858035484 426.9719753686679 301.6396823110691 426.05081846649534Q302.3825507805631 425.09994682554304 302.3825507805631 423.4359214538764L302.3825507805631 423.4359214538764L302.3825507805631 306.4192801391781Q302.3825507805631 302.46721988147 300.18366011086084 301.3083450690593Q297.9847694411585 300.1494702566486 292.36868381178374 299.73346391373195L292.36868381178374 299.73346391373195Q291.71495955862895 299.73346391373195 291.29895321571234 299.73346391373195L291.29895321571234 299.73346391373195Q287.55489612946246 299.73346391373195 287.55489612946246 294.3253814558155L287.55489612946246 294.3253814558155Q287.55489612946246 290.55160963078583 291.29895321571234 290.55160963078583L291.29895321571234 290.55160963078583Q291.50695638717065 290.55160963078583 292.78469015470034 290.6704685859049Q294.0327091834503 290.7596128022442 296.43960302461096 290.7596128022442Q298.8167821269918 290.7596128022442 301.5505380947298 290.7596128022442ZM368.40870034919175 326.4767288155167L368.40870034919175 326.4767288155167Q368.40870034919175 322.10866221489187 366.95267814898347 317.62173665914804Q365.4669412099954 313.10509636462433 362.1388904666622 308.5290265925412Q358.78112498454925 303.92324208167827 352.21416771422207 301.0111976812617Q345.6174957051152 298.06943854206537 336.8516477650857 298.06943854206537L336.8516477650857 298.06943854206537Q324.9360375144016 298.06943854206537 321.8159899425267 300.59519133834505L321.8159899425267 300.59519133834505Q320.7759740852351 301.4272040241783 320.7759740852351 303.2992325673033L320.7759740852351 303.2992325673033L320.7759740852351 303.7152389102199L320.7759740852351 349.4759366310516Q320.7759740852351 352.1799778600099 323.0640089712767 352.1799778600099L323.0640089712767 352.1799778600099L332.6915843359192 352.1799778600099L335.39562556487743 352.1799778600099Q357.94911229871593 352.1799778600099 365.2589380385371 338.6003422376592L365.2589380385371 338.6003422376592Q368.40870034919175 332.33053235512966 368.40870034919175 326.4767288155167ZM337.2676541080024 428.6657154791143L337.2676541080024 428.6657154791143Q354.20505521246605 428.6657154791143 366.12066546315015 419.5730054125074Q378.0065609750545 410.4802953459007 378.0065609750545 394.40462166605005L378.0065609750545 394.40462166605005Q378.0065609750545 383.73703044411593 371.855610047644 374.6443203775091Q365.6749443814537 365.5516103109022 352.74903301225777 362.847569081944L352.74903301225777 362.847569081944Q345.85521361535325 361.39154688173574 334.7716160505025 361.39154688173574L334.7716160505025 361.39154688173574L323.89602165711 361.39154688173574Q320.7759740852351 361.39154688173574 320.7759740852351 364.7195976250689L320.7759740852351 364.7195976250689L320.7759740852351 419.87015280030505Q320.7759740852351 422.1879024251265 321.0731214730327 423.4359214538764Q321.3999835996101 424.6839404826263 322.8560057998184 426.05081846649534Q324.31202800002666 427.38798171158453 327.25378713922294 427.83370279328096L327.25378713922294 427.83370279328096Q333.5235970217525 428.6657154791143 337.2676541080024 428.6657154791143Z " fill="#ffff" transform="matrix(0.7151410989709609,0,0,0.7151410989709609,0,39.917778520857)"/><path d="M599.6278555205687 406.71419807392795L599.6278555205687 406.71419807392795Q595.2404507954905 406.71419807392795 595.2404507954905 403.7370305819105L595.2404507954905 403.7370305819105Q595.2404507954905 402.95356545243226 595.5538368472817 402.39394750280496Q595.8672228990731 401.83432955317767 596.8745352084022 401.0508644236994Q597.9042322357166 400.26739929422115 599.1577764428818 399.55108831869813Q600.433705368032 398.85716206116024 602.9407937823624 397.20069293026336Q605.470266914678 395.5442237993665 607.9773553290083 393.507214462723L607.9773553290083 393.507214462723Q619.4607156553611 384.3742495248051 627.9669084896964 373.6743543279306L627.9669084896964 373.6743543279306Q631.9066188550728 368.4810997553891 631.9066188550728 364.3846963641171L631.9066188550728 364.3846963641171Q631.9066188550728 356.9977394290363 624.9673562796941 351.62540711261397Q618.0504784223003 346.27545951417676 610.506828461324 346.27545951417676L610.506828461324 346.27545951417676Q604.507724041319 346.27545951417676 600.9709385996742 349.74509080186624Q597.4341531580296 353.2147220895556 597.1207671062382 357.78120455851456L597.1207671062382 357.78120455851456Q597.1207671062382 362.0343009756823 594.7479869998184 362.0343009756823L594.7479869998184 362.0343009756823L594.5912939739228 362.0343009756823Q591.4574334560098 362.0343009756823 591.4574334560098 356.1918895815729L591.4574334560098 356.1918895815729Q591.4574334560098 347.55138843932707 597.7475392098208 341.9552089430538Q604.037644963632 336.3590294467806 613.640688979237 336.3590294467806L613.640688979237 336.3590294467806Q624.9673562796941 336.3590294467806 633.4063949600741 343.05206012432336Q641.8230489224691 349.74509080186624 641.8230489224691 359.818213895158L641.8230489224691 359.818213895158Q641.8230489224691 364.3846963641171 639.4502688160492 369.10787185897163Q637.0998734276144 373.8310473538263 634.9733252190306 376.3381357681567Q632.8467770104467 378.8676089004722 626.8700573084269 384.68763557659645Q620.893337606407 390.5076622527206 618.6772505258829 392.8804423591405L618.6772505258829 392.8804423591405Q618.0504784223003 393.82060051451435 618.0504784223003 393.97729354040996L618.0504784223003 393.97729354040996Q618.0504784223003 395.38753077347087 619.7741017071523 395.38753077347087L619.7741017071523 395.38753077347087Q623.4004260207375 395.38753077347087 631.5932328032816 394.7607586698882L631.5932328032816 394.7607586698882Q637.7266455311969 394.2906795922013 642.04689610232 391.69405230593054Q646.389531391428 389.0974250196597 649.993470987028 381.3746973148027L649.993470987028 381.3746973148027Q650.6426278085958 379.65107402995045 652.0528650416566 379.65107402995045L652.0528650416566 379.65107402995045Q654.8733395077783 379.65107402995045 654.8733395077783 381.6880833665939L654.8733395077783 381.6880833665939Q654.8733395077783 382.18054716226595 648.8966198057584 402.3267933488497L648.8966198057584 402.3267933488497Q648.7399267798628 402.95356545243226 648.4265407280715 403.3341056581788Q648.1131546762801 403.7370305819105 647.8893074964292 403.9608777617615Q647.6430755985932 404.20710965959756 647.0834576489659 404.36380268549317Q646.5462244173236 404.5204957113888 646.2999925194877 404.5204957113888Q646.0761453396367 404.5204957113888 645.2926802101584 404.58764986534413Q644.4868303626952 404.6771887372845 644.1734443109037 404.6771887372845L644.1734443109037 404.6771887372845Q637.8833385570927 404.9905747890758 626.7805184364865 405.46065386676275Q615.7000830338654 405.9307329444497 607.9773553290083 406.3336578681814Q600.2770123421365 406.71419807392795 599.6278555205687 406.71419807392795ZM676.452207645408 336.7619543705123Q681.018690114367 336.85149324245265 686.2119446869085 336.85149324245265Q691.40519925945 336.85149324245265 695.8821428564686 336.7619543705123Q700.3590864534874 336.6724154985719 702.8885595858028 336.5157224726762Q705.3956480001332 336.3590294467806 705.8881117958053 336.3590294467806L705.8881117958053 336.3590294467806Q708.0818141583443 336.3590294467806 708.0818141583443 339.82866073446996L708.0818141583443 339.82866073446996Q708.0818141583443 342.6715199185768 700.5157794793829 342.9849059703681L700.5157794793829 342.9849059703681Q697.6953050132613 343.1415989962637 695.9716817284091 343.29829202215944L695.9716817284091 343.29829202215944Q693.7555946478849 343.45498504805505 693.7555946478849 345.8053804364898L693.7555946478849 345.8053804364898L693.7555946478849 394.91745169578394Q693.7555946478849 398.073696931682 696.5984538319917 398.2303899575777L696.5984538319917 398.2303899575777Q698.3220771168437 398.3870829834733 700.1352392736364 398.45423713742855Q701.9484014304289 398.543776009369 703.1124067656538 398.61093016332427Q704.2987968188636 398.70046903526463 705.5523410260289 398.7676231892199Q706.8282699511792 398.85716206116024 707.4550420547619 399.01385508705596Q708.0818141583443 399.17054811295156 708.8652792878227 399.3272411388473Q709.648744417301 399.4839341647429 709.9621304690922 399.7973202165342Q710.2755165208835 400.11070626832554 710.5889025726749 400.5136311920571Q710.9246733424513 400.8941713978037 710.9918274964066 401.4537893474311Q711.0813663683468 401.9910225790733 711.0813663683468 402.79687242653665L711.0813663683468 402.79687242653665Q711.0813663683468 405.61734689265836 708.23850718424 405.61734689265836L708.23850718424 405.61734689265836Q708.0818141583443 405.61734689265836 706.9849629770749 405.5501927387031Q705.8881117958053 405.46065386676275 703.9854107670724 405.30396084086703Q702.1050944563247 405.1472678149714 699.7323143499048 404.9905747890758Q697.3819189614699 404.8338817631801 694.3152125975123 404.76672760922486Q691.2485062335545 404.6771887372845 688.248954023552 404.6771887372845Q685.2494018135494 404.6771887372845 682.2722343215321 404.76672760922486Q679.2726821115297 404.8338817631801 676.9222867230949 404.9905747890758Q674.549506616675 405.1472678149714 672.7363444598825 405.30396084086703Q670.945567021075 405.46065386676275 669.8263311218204 405.5501927387031Q668.7294799405508 405.61734689265836 668.5727869146551 405.61734689265836L668.5727869146551 405.61734689265836Q666.3790845521161 405.61734689265836 666.3790845521161 402.3267933488497L666.3790845521161 402.3267933488497Q666.3790845521161 399.4839341647429 669.1995590182378 399.17054811295156L669.1995590182378 399.17054811295156Q671.5723391246577 399.01385508705596 675.0195856943619 398.70046903526463L675.0195856943619 398.70046903526463Q679.586068163321 398.543776009369 680.54861103668 398.073696931682Q681.488769192054 397.60361785399505 681.488769192054 395.38753077347087L681.488769192054 395.38753077347087L681.488769192054 345.8053804364898Q681.488769192054 343.61167807395066 679.115989085634 343.29829202215944L679.115989085634 343.29829202215944Q666.6924706039074 342.6715199185768 666.3790845521161 342.6715199185768L666.3790845521161 342.6715199185768Q664.0063044456963 342.04474781499414 664.0063044456963 338.8885025790961L664.0063044456963 338.8885025790961Q664.0063044456963 336.3590294467806 666.3790845521161 336.3590294467806L666.3790845521161 336.3590294467806Q666.8491636298031 336.3590294467806 669.3562520441335 336.5157224726762Q671.8857251764489 336.6724154985719 676.452207645408 336.7619543705123ZM734.0480870210524 364.3846963641171L734.0480870210524 364.3846963641171Q734.0480870210524 377.3006786415157 741.8379688798648 388.22442101824106Q749.6278507386771 399.17054811295156 762.8572190678672 399.17054811295156L762.8572190678672 399.17054811295156Q770.0874829770521 399.17054811295156 773.6242684186968 396.17099590294913Q777.1834385783266 393.1938284109317 778.9070618631788 387.6871877865989L778.9070618631788 387.6871877865989Q780.630685148031 381.6880833665939 780.630685148031 376.3381357681567L780.630685148031 376.3381357681567Q780.630685148031 362.66107307926484 772.1468770316806 352.8117971658239Q763.6406841973453 342.9849059703681 752.6274029486794 342.9849059703681L752.6274029486794 342.9849059703681Q745.3747543215093 342.9849059703681 739.7114206712808 348.33485356880533Q734.0480870210524 353.68480116724254 734.0480870210524 364.3846963641171ZM761.4469818348061 405.46065386676275L761.4469818348061 405.46065386676275Q745.2180612956138 405.46065386676275 733.734700969261 394.2906795922013Q722.2513406429082 383.12070531763993 722.2513406429082 368.16771370359777L722.2513406429082 368.16771370359777Q722.2513406429082 354.4682662967208 732.011077684409 345.11145417895193Q741.7708147259095 335.73225734319794 755.4478774148013 335.73225734319794L755.4478774148013 335.73225734319794Q770.8709481065302 335.73225734319794 781.9737682271364 347.6185425932823Q793.0765883477427 359.5048278433668 793.0765883477427 376.4948287940523L793.0765883477427 376.4948287940523Q793.0765883477427 395.38753077347087 778.9070618631788 413.02668854572414Q764.7375353786149 430.6434615999924 742.0842007777007 437.58272417537125L742.0842007777007 437.58272417537125Q737.9877973864286 438.6795753566407 737.0476392310547 438.6795753566407L737.0476392310547 438.6795753566407Q735.4583242541132 438.6795753566407 734.7643979965753 437.2469534055948Q734.0480870210524 435.8367161725339 734.0480870210524 434.7398649912644L734.0480870210524 434.7398649912644Q734.0480870210524 432.8595486805166 736.7342531792635 432.0536988330532L736.7342531792635 432.0536988330532Q743.807824062553 429.85999647051415 750.3441617142 426.1665180029737Q756.8804993658473 422.4730395354334 761.2007499369702 418.8467152218483Q765.521000508093 415.2203909082633 768.7667846159316 411.75075962057383Q771.9901840057851 408.3035130508696 773.4675753928011 406.244118996241Q774.9673514978024 404.20710965959756 774.9673514978024 403.89372360780624L774.9673514978024 403.89372360780624Q774.9673514978024 403.4236445301193 774.4972724201155 403.4236445301193L774.4972724201155 403.4236445301193L773.7138072906371 403.7370305819105Q772.9303421611589 403.89372360780624 771.7439521079491 404.1175707876571Q770.557562054739 404.36380268549317 768.9906317957825 404.6771887372845Q767.423701536826 404.9905747890758 765.3643074821975 405.2368066869118Q763.3272981455541 405.46065386676275 761.4469818348061 405.46065386676275ZM853.8287129592852 294.18622076286533L853.8287129592852 294.18622076286533Q858.7085814800355 294.18622076286533 867.9087005719086 293.4027556333871Q877.131204381767 292.6192905039088 881.8319951586366 292.6192905039088L881.8319951586366 292.6192905039088Q899.3144599049942 292.6192905039088 908.6041178688076 299.0660892836156L908.6041178688076 299.0660892836156Q918.5205479362039 306.29635319280067 918.5205479362039 317.6454052112428L918.5205479362039 317.6454052112428Q918.5205479362039 325.0323621463235 914.2674515190363 331.6358539519259Q910.0143551018687 338.26173047551345 903.2541702703707 342.5148268926812L903.2541702703707 342.5148268926812L902.7840911926835 342.9849059703681Q902.7840911926835 343.1415989962637 903.4108632962661 343.45498504805505L903.4108632962661 343.45498504805505Q912.8572142859755 345.1786083329072 919.3040130656823 353.05802906366Q925.7508118453891 360.9150650764276 925.7508118453891 371.4582672474064L925.7508118453891 371.4582672474064Q925.7508118453891 382.18054716226595 919.6173991174735 390.28381507286963Q913.4839863895579 398.3870829834733 905.2911796070139 401.9910225790733L905.2911796070139 401.9910225790733Q897.2774505683506 405.61734689265836 885.9283985499085 405.61734689265836L885.9283985499085 405.61734689265836Q882.1677659284128 405.61734689265836 874.9151173012428 405.1472678149714Q867.6848533920577 404.6771887372845 863.901836052577 404.6771887372845L863.901836052577 404.6771887372845Q861.2156698943659 404.6771887372845 855.238950192346 404.8338817631801Q849.2622304903261 404.9905747890758 845.4792131508455 404.9905747890758L845.4792131508455 404.9905747890758L845.165827099054 404.9905747890758Q844.2256689436801 404.9905747890758 843.6660509940527 404.8338817631801Q843.1288177624106 404.6771887372845 842.5691998127834 403.7370305819105Q842.031966581141 402.79687242653665 842.031966581141 401.0508644236994L842.031966581141 401.0508644236994Q842.031966581141 399.17054811295156 843.1959719163658 398.70046903526463Q844.3823619695759 398.2303899575777 848.9488444385347 397.76031087989065L848.9488444385347 397.76031087989065Q850.3590816715957 397.60361785399505 851.1425468010739 397.44692482809944L851.1425468010739 397.44692482809944Q852.2617827003287 397.2902318022037 852.7990159319709 397.04399990436775Q853.358633881598 396.79776800653167 853.8958671132405 396.1038417489939Q854.4554850628676 395.38753077347087 854.4554850628676 394.1339865663057L854.4554850628676 394.1339865663057L854.4554850628676 305.98296714100934Q854.4554850628676 303.00579964899197 852.7990159319709 302.1327956475733Q851.1425468010739 301.25979164615467 846.9118351018913 300.9464055943634L846.9118351018913 300.9464055943634Q846.4193713062193 300.9464055943634 846.1059852544281 300.9464055943634L846.1059852544281 300.9464055943634Q843.2855107883063 300.9464055943634 843.2855107883063 296.87238692107644L843.2855107883063 296.87238692107644Q843.2855107883063 294.02952773696967 846.1059852544281 294.02952773696967L846.1059852544281 294.02952773696967Q846.2626782803236 294.02952773696967 847.2252211536827 294.11906660891003Q848.1653793090566 294.18622076286533 849.978541465849 294.18622076286533Q851.7917036226415 294.18622076286533 853.8287129592852 294.18622076286533ZM904.1943284257443 321.0926517809471L904.1943284257443 321.0926517809471Q904.1943284257443 317.80209823713847 903.0974772444749 314.4220058213894Q901.9782413452203 311.0195286876552 899.4711529308897 307.572282117951Q896.9416797985743 304.1026508302615 891.9946571238688 301.90894846772244Q887.0476344491631 299.6928613871982 880.4217579255755 299.6928613871982L880.4217579255755 299.6928613871982Q871.4454860135534 299.6928613871982 869.0950906251185 301.5955624159311L869.0950906251185 301.5955624159311Q868.3116254956403 302.2223345195137 868.3116254956403 303.63257175257456L868.3116254956403 303.63257175257456L868.3116254956403 303.9459578043659L868.3116254956403 338.41842350140917Q868.3116254956403 340.4554328380526 870.0352487804926 340.4554328380526L870.0352487804926 340.4554328380526L877.2878974076625 340.4554328380526L879.3249067443062 340.4554328380526Q896.3149076949917 340.4554328380526 901.8215483193246 330.2256167188651L901.8215483193246 330.2256167188651Q904.1943284257443 325.50244122401045 904.1943284257443 321.0926517809471ZM880.735143977367 398.073696931682L880.735143977367 398.073696931682Q893.4944332288699 398.073696931682 902.4707051408923 391.2239732282436Q911.4245923349295 384.3742495248051 911.4245923349295 372.2641170948698L911.4245923349295 372.2641170948698Q911.4245923349295 364.22800333822136 906.7909557120151 357.37827963478287Q902.1573190891011 350.5285559313445 892.3975820476005 348.49154659470094L892.3975820476005 348.49154659470094Q887.2043274750588 347.39469541343146 878.854827666619 347.39469541343146L878.854827666619 347.39469541343146L870.662020884075 347.39469541343146Q868.3116254956403 347.39469541343146 868.3116254956403 349.90178382776185L868.3116254956403 349.90178382776185L868.3116254956403 391.44782040809446Q868.3116254956403 393.1938284109317 868.5354726754913 394.1339865663057Q868.7817045733273 395.07414472167955 869.8785557545968 396.1038417489939Q870.9754069358664 397.111154058323 873.1914940163906 397.44692482809944L873.1914940163906 397.44692482809944Q877.9146695112452 398.073696931682 880.735143977367 398.073696931682ZM988.0922514338731 399.3272411388473L988.0922514338731 399.3272411388473Q987.9355584079774 399.3272411388473 986.7491683547673 400.2002451402659Q985.5627783015575 401.0508644236994 983.5929231188693 402.23725447690936Q981.6230679361811 403.4236445301193 979.1159795218507 404.58764986534413Q976.5865063895353 405.77403991855397 972.9825667939353 406.6470439199727Q969.3562424803501 407.5200479213913 965.5732251408695 407.5200479213913L965.5732251408695 407.5200479213913Q955.6567950734732 407.5200479213913 949.0533032678709 401.36425047549073Q942.4498114622684 395.23083774757526 941.0171895112226 384.2175564989094L941.0171895112226 384.2175564989094Q940.5471104335354 379.49438100405484 940.5471104335354 374.30112643151324L940.5471104335354 374.30112643151324Q940.5471104335354 371.3015742215108 940.6366493054759 360.3778318447854Q940.7038034594311 349.4317047500749 940.7038034594311 348.49154659470094L940.7038034594311 348.49154659470094Q940.7038034594311 345.4919943846985 936.2940140163678 343.925064125742L936.2940140163678 343.925064125742Q935.5105488868896 343.61167807395066 933.8540797559926 343.1415989962637Q932.1976106250959 342.6715199185768 931.727531547409 342.20144084088986Q931.2574524697218 341.7089770452178 931.2574524697218 340.4554328380526L931.2574524697218 340.4554328380526L931.2574524697218 339.9853537603657Q931.2574524697218 337.9483444237221 933.0034604725593 337.7916513978265L933.0034604725593 337.7916513978265Q949.0533032678709 336.85149324245265 949.836768397349 336.85149324245265L949.836768397349 336.85149324245265Q951.4036986563056 336.85149324245265 951.4036986563056 338.7318095532004L951.4036986563056 338.7318095532004L951.4036986563056 371.77165329919774Q951.4036986563056 382.33724018816156 954.4032508663081 388.47065291607714L954.4032508663081 388.47065291607714Q956.5969532288473 392.72374933324477 961.0962815438509 395.94714872309817Q965.5732251408695 399.17054811295156 971.3932518169936 399.17054811295156L971.3932518169936 399.17054811295156Q979.2726725477464 399.17054811295156 985.0926992238706 393.3505214368274L985.0926992238706 393.3505214368274Q985.4060852756618 392.8804423591405 985.9657032252892 392.3208244095131Q986.5029364569314 391.7612064598858 986.6596294828271 391.5373592800348Q986.8163225087228 391.29112738219885 987.129708560514 390.9777413304075Q987.4430946123055 390.6643552786162 987.5326334842457 390.44050809876535Q987.599787638201 390.19427620092927 987.7788653820817 389.88089014913794Q987.9355584079774 389.5675040973467 987.9355584079774 389.32127219951064Q987.9355584079774 389.0974250196597 987.9355584079774 388.62734594197275L987.9355584079774 388.62734594197275L987.9355584079774 348.961625672388Q987.9355584079774 345.4919943846985 984.7793131720794 344.55183622932464L984.7793131720794 344.55183622932464Q983.995848042601 344.2384501775333 977.213278493118 343.1415989962637L977.213278493118 343.1415989962637Q974.8628831046831 342.6715199185768 974.8628831046831 340.4554328380526L974.8628831046831 340.4554328380526Q974.8628831046831 338.10503744961784 977.0565854672222 337.7916513978265L977.0565854672222 337.7916513978265Q982.2498400397637 337.6349583719309 986.4357823029761 337.4782653460352Q990.5993398482035 337.3215723201396 992.2558089791003 337.2320334481992Q993.9122781099973 337.16487929424386 995.0762834452221 337.16487929424386Q996.2626734984319 337.16487929424386 996.8894456020146 337.16487929424386L996.8894456020146 337.16487929424386Q999.2622257084345 337.16487929424386 999.2622257084345 340.2987398121569L999.2622257084345 340.2987398121569L999.2622257084345 390.8210483045119Q999.2622257084345 391.29112738219885 999.3293798623897 391.5373592800348Q999.4189187343302 391.7612064598858 999.6427659141812 392.00743835772187Q999.8889978120171 392.25367025555784 1000.2023838638083 392.41036328145344Q1000.5157699155998 392.56705630734916 1001.1425420191824 392.8804423591405Q1001.7693141227649 393.1938284109317 1002.5527792522432 393.507214462723Q1003.3586290997066 393.82060051451435 1004.6121733068717 394.447372618097Q1005.865717514037 395.07414472167955 1007.2759547470978 395.7009168252622Q1008.7085766981438 396.32768892884474 1008.7085766981438 397.60361785399505L1008.7085766981438 397.60361785399505Q1008.7085766981438 399.3272411388473 1007.9922657226207 399.9540132424298Q1007.2759547470978 400.5807853460125 1005.865717514037 400.82701724384845Q1004.4554802809762 401.0508644236994 1000.6724629414953 402.39394750280496Q996.8894456020146 403.7370305819105 992.4796561589512 406.244118996241L992.4796561589512 406.244118996241Q991.5394980035774 406.87089109982355 990.7560328740992 406.87089109982355L990.7560328740992 406.87089109982355Q988.56233051156 406.87089109982355 988.56233051156 403.7370305819105L988.56233051156 403.7370305819105L988.56233051156 399.9540132424298Q988.56233051156 399.3272411388473 988.0922514338731 399.3272411388473ZM1016.8789987627026 405.61734689265836L1016.8789987627026 405.61734689265836Q1014.3719103483722 405.61734689265836 1014.3719103483722 401.67763652728195L1014.3719103483722 401.67763652728195Q1014.3719103483722 400.11070626832554 1015.3792226577016 399.6406271906385Q1016.4089196850157 399.17054811295156 1019.8785509727052 398.70046903526463L1019.8785509727052 398.70046903526463Q1021.288788205766 398.543776009369 1022.0722533352443 398.3870829834733L1022.0722533352443 398.3870829834733Q1022.5423324129313 398.3870829834733 1022.945257336663 398.2303899575777Q1023.3481822603947 398.073696931682 1023.5720294402456 397.76031087989065Q1023.8182613380816 397.44692482809944 1023.9749543639773 397.2902318022037Q1024.1316473898728 397.111154058323 1024.198801543828 396.64107498063606Q1024.2883404157685 396.17099590294913 1024.2883404157685 396.0143028770534Q1024.2883404157685 395.8576098511578 1024.3554945697238 395.23083774757526Q1024.445033441664 394.6040656439926 1024.445033441664 394.447372618097L1024.445033441664 394.447372618097Q1025.0718055452467 386.25456583555285 1025.0718055452467 348.33485356880533L1025.0718055452467 348.33485356880533Q1025.0718055452467 347.23800238753574 1024.1316473898728 346.9246163357444Q1023.1914892344989 346.5888455659681 1019.565164920914 346.5888455659681L1019.565164920914 346.5888455659681Q1017.662463892181 346.5888455659681 1016.5656127109114 346.5888455659681L1016.5656127109114 346.5888455659681Q1013.1183661412072 346.5888455659681 1013.1183661412072 343.7683710998464L1013.1183661412072 343.7683710998464Q1013.1183661412072 338.8885025790961 1016.5656127109114 338.8885025790961L1016.5656127109114 338.8885025790961Q1018.6250067655399 338.7318095532004 1021.288788205766 338.7318095532004L1021.288788205766 338.7318095532004Q1023.8182613380816 338.7318095532004 1024.2883404157685 338.5751165273048Q1024.7584194934554 338.41842350140917 1024.7584194934554 337.3215723201396L1024.7584194934554 337.3215723201396L1024.7584194934554 337.16487929424386Q1025.2284985711424 317.48871218534714 1031.6752973508492 306.13966016690495L1031.6752973508492 306.13966016690495Q1036.2417798198082 298.28262415413735 1044.8151268080987 293.4699097873423Q1053.4108585143745 288.6795801385324 1061.1112015012466 288.6795801385324L1061.1112015012466 288.6795801385324Q1066.9312281773707 288.6795801385324 1069.8412415154328 291.27620742480326Q1072.7512548534949 293.872834711074 1072.7512548534949 297.02907994697216L1072.7512548534949 297.02907994697216Q1072.7512548534949 299.53616836130254 1070.9604774146874 301.4164846720504Q1069.147315257895 303.31918570078324 1065.9910700219968 303.31918570078324L1065.9910700219968 303.31918570078324Q1063.7973676594577 303.31918570078324 1059.4547323703498 301.3493305180951Q1055.1344817992267 299.37947533540694 1052.605008666911 299.37947533540694L1052.605008666911 299.37947533540694Q1044.4345866023523 299.37947533540694 1040.24864433914 309.2959054028031Q1036.0850867939125 319.2123354701993 1036.0850867939125 334.47871313603275L1036.0850867939125 334.47871313603275L1036.0850867939125 335.88895036909366Q1036.0850867939125 337.4782653460352 1036.3313186917485 337.9483444237221Q1036.5551658715995 338.41842350140917 1037.652017052869 338.41842350140917L1037.652017052869 338.41842350140917L1053.4108585143745 338.41842350140917Q1057.0147981099744 338.41842350140917 1057.0147981099744 341.7089770452178L1057.0147981099744 341.7089770452178L1057.0147981099744 341.88805478909853Q1057.0147981099744 346.7455385918637 1052.7617016928068 346.7455385918637L1052.7617016928068 346.7455385918637L1037.652017052869 346.7455385918637Q1036.2417798198082 346.7455385918637 1036.2417798198082 348.1781605429097L1036.2417798198082 348.1781605429097L1036.2417798198082 394.2906795922013L1036.2417798198082 394.91745169578394Q1036.2417798198082 398.543776009369 1039.3980250557063 398.70046903526463L1039.3980250557063 398.70046903526463Q1040.6515692628716 398.85716206116024 1042.2184995218279 398.9243162151156Q1043.8078144987696 399.01385508705596 1044.5017407563075 399.01385508705596Q1045.2180517318304 399.01385508705596 1046.091055733249 399.0810092410112Q1046.9416750166827 399.17054811295156 1047.3445999404144 399.3943952928025Q1047.7251401461608 399.6406271906385 1048.1280650698925 399.9540132424298Q1048.5309899936242 400.26739929422115 1048.5981441475794 400.82701724384845Q1048.68768301952 401.36425047549073 1048.68768301952 402.147715604969L1048.68768301952 402.147715604969Q1048.68768301952 405.61734689265836 1046.0015168613088 405.61734689265836L1046.0015168613088 405.61734689265836Q1045.844823835413 405.61734689265836 1045.061358705935 405.5501927387031Q1044.2778935764566 405.46065386676275 1042.934810497351 405.30396084086703Q1041.5917274182455 405.1472678149714 1039.8681041333932 404.9905747890758Q1038.144480848541 404.8338817631801 1035.9283937680168 404.76672760922486Q1033.7346914054779 404.6771887372845 1031.5186043249535 404.6771887372845Q1029.3249019624145 404.6771887372845 1027.0416607279349 404.76672760922486Q1024.7584194934554 404.8338817631801 1023.1019503625585 404.9905747890758Q1021.4454812316617 405.1472678149714 1020.0352439986009 405.30396084086703Q1018.6250067655399 405.46065386676275 1017.8191569180767 405.5501927387031Q1017.0356917885983 405.61734689265836 1016.8789987627026 405.61734689265836ZM1063.9540606853534 405.61734689265836L1063.9540606853534 405.61734689265836Q1061.4245875530378 405.61734689265836 1061.4245875530378 401.67763652728195L1061.4245875530378 401.67763652728195Q1061.4245875530378 400.11070626832554 1062.4542845803521 399.6406271906385Q1063.4839816076662 399.17054811295156 1066.9312281773707 398.70046903526463L1066.9312281773707 398.70046903526463Q1068.3638501284165 398.543776009369 1069.147315257895 398.3870829834733L1069.147315257895 398.3870829834733Q1069.6173943355818 398.3870829834733 1069.9979345413285 398.2303899575777Q1070.4008594650602 398.073696931682 1070.6247066449112 397.76031087989065Q1070.8709385427471 397.44692482809944 1071.0276315686428 397.2902318022037Q1071.1843245945383 397.111154058323 1071.2738634664788 396.64107498063606Q1071.341017620434 396.17099590294913 1071.341017620434 396.0143028770534Q1071.341017620434 395.8576098511578 1071.4305564923745 395.23083774757526Q1071.4977106463298 394.6040656439926 1071.4977106463298 394.447372618097L1071.4977106463298 394.447372618097Q1072.1244827499122 386.25456583555285 1072.1244827499122 348.33485356880533L1072.1244827499122 348.33485356880533Q1072.1244827499122 347.23800238753574 1071.1843245945383 346.9246163357444Q1070.2441664391645 346.5888455659681 1066.6178421255793 346.5888455659681L1066.6178421255793 346.5888455659681Q1064.7375258148315 346.5888455659681 1063.640674633562 346.5888455659681L1063.640674633562 346.5888455659681Q1060.1710433458725 346.5888455659681 1060.1710433458725 343.7683710998464L1060.1710433458725 343.7683710998464Q1060.1710433458725 338.8885025790961 1063.640674633562 338.8885025790961L1063.640674633562 338.8885025790961Q1065.6776839702054 338.7318095532004 1068.3638501284165 338.7318095532004L1068.3638501284165 338.7318095532004Q1070.8709385427471 338.7318095532004 1071.341017620434 338.5751165273048Q1071.811096698121 338.41842350140917 1071.811096698121 337.3215723201396L1071.811096698121 337.3215723201396L1071.811096698121 337.16487929424386Q1072.281175775808 317.48871218534714 1078.7503592735 306.13966016690495L1078.7503592735 306.13966016690495Q1083.2944570244738 298.28262415413735 1091.8901887307493 293.4699097873423Q1100.46353571904 288.6795801385324 1108.163878705912 288.6795801385324L1108.163878705912 288.6795801385324Q1114.0062901000213 288.6795801385324 1116.9163034380833 291.27620742480326Q1119.8263167761454 293.872834711074 1119.8263167761454 297.02907994697216L1119.8263167761454 297.02907994697216Q1119.8263167761454 299.53616836130254 1118.013154619353 301.4164846720504Q1116.1999924625604 303.31918570078324 1113.0437472266622 303.31918570078324L1113.0437472266622 303.31918570078324Q1110.8500448641232 303.31918570078324 1106.5297942930001 301.3493305180951Q1102.1871590038922 299.37947533540694 1099.6800705895619 299.37947533540694L1099.6800705895619 299.37947533540694Q1091.4872638070178 299.37947533540694 1087.3237062617904 309.2959054028031Q1083.137763998578 319.2123354701993 1083.137763998578 334.47871313603275L1083.137763998578 334.47871313603275L1083.137763998578 335.88895036909366Q1083.137763998578 337.4782653460352 1083.383995896414 337.9483444237221Q1083.63022779425 338.41842350140917 1084.7270789755196 338.41842350140917L1084.7270789755196 338.41842350140917L1100.46353571904 338.41842350140917Q1104.0898600326252 338.41842350140917 1104.0898600326252 341.7089770452178L1104.0898600326252 341.7089770452178L1104.0898600326252 341.88805478909853Q1104.0898600326252 346.7455385918637 1099.8367636154574 346.7455385918637L1099.8367636154574 346.7455385918637L1084.7270789755196 346.7455385918637Q1083.2944570244738 346.7455385918637 1083.2944570244738 348.1781605429097L1083.2944570244738 348.1781605429097L1083.2944570244738 394.2906795922013L1083.2944570244738 394.91745169578394Q1083.2944570244738 398.543776009369 1086.4507022603718 398.70046903526463L1086.4507022603718 398.70046903526463Q1087.7042464675371 398.85716206116024 1089.2935614444787 398.9243162151156Q1090.8604917034352 399.01385508705596 1091.576802678958 399.01385508705596Q1092.270728936496 399.01385508705596 1093.1437329379146 399.0810092410112Q1094.0167369393332 399.17054811295156 1094.39727714508 399.3943952928025Q1094.8002020688116 399.6406271906385 1095.180742274558 399.9540132424298Q1095.5836671982897 400.26739929422115 1095.650821352245 400.82701724384845Q1095.7403602241855 401.36425047549073 1095.7403602241855 402.147715604969L1095.7403602241855 402.147715604969Q1095.7403602241855 405.61734689265836 1093.0541940659743 405.61734689265836L1093.0541940659743 405.61734689265836Q1092.8975010400786 405.61734689265836 1092.1140359106005 405.5501927387031Q1091.330570781122 405.46065386676275 1089.9874877020166 405.30396084086703Q1088.666789340896 405.1472678149714 1086.9207813380588 404.9905747890758Q1085.1971580532067 404.8338817631801 1082.9810709726823 404.76672760922486Q1080.7873686101432 404.6771887372845 1078.593666247604 404.6771887372845Q1076.37757916708 404.6771887372845 1074.0943379326004 404.76672760922486Q1071.811096698121 404.8338817631801 1070.1546275672242 404.9905747890758Q1068.5205431543122 405.1472678149714 1067.0879212032662 405.30396084086703Q1065.6776839702054 405.46065386676275 1064.8942188407273 405.5501927387031Q1064.110753711249 405.61734689265836 1063.9540606853534 405.61734689265836ZM1109.2831146051667 371.4582672474064L1109.2831146051667 371.4582672474064Q1109.2831146051667 355.09503840030345 1117.9236157474127 345.1786083329072Q1126.5865016076436 335.262178265511 1139.0324048073553 335.262178265511L1139.0324048073553 335.262178265511Q1147.0461338460186 335.262178265511 1154.4554754990845 339.67196770857436Q1161.842432434165 344.0817571516377 1166.7223009549155 350.6852489572401L1166.7223009549155 350.6852489572401Q1167.9758451620805 352.27456393418174 1167.9758451620805 354.1548802449295L1167.9758451620805 354.1548802449295L1167.9758451620805 354.4682662967208Q1167.9758451620805 355.8785035297817 1167.1923800326024 356.9977394290363Q1166.408914903124 358.0945906103059 1164.685291618272 358.9452098937394Q1162.9392836154348 359.818213895158 1161.6857394082695 360.28829297284506Q1160.4321952011042 360.758372050532 1157.992260940729 361.54183718001025Q1155.552326680354 362.3476870274736 1154.9255545767714 362.50438005336923L1154.9255545767714 362.50438005336923Q1122.0200191386846 373.8310473538263 1121.2365540092064 374.30112643151324L1121.2365540092064 374.30112643151324Q1120.6097819056238 374.61451248330457 1120.6097819056238 375.2412845868871L1120.6097819056238 375.2412845868871Q1120.6097819056238 376.1814427422611 1121.0798609833107 378.39752982278526Q1121.5499400609976 380.59123218532443 1123.2064091918944 384.2175564989094Q1124.8628783227914 387.8438808124945 1127.3028125831665 390.9105871764523Q1129.7427468435417 393.97729354040996 1134.3092293125007 396.2605347748895Q1138.8757117814596 398.543776009369 1144.5390454316882 398.543776009369L1144.5390454316882 398.543776009369Q1155.552326680354 398.543776009369 1163.722748744913 390.6643552786162L1163.722748744913 390.6643552786162Q1165.9388358254373 388.47065291607714 1167.349073058498 388.47065291607714L1167.349073058498 388.47065291607714Q1170.0352392167092 388.47065291607714 1170.0352392167092 390.8210483045119L1170.0352392167092 390.8210483045119Q1170.0352392167092 391.7612064598858 1168.759310291559 393.3505214368274L1168.759310291559 393.3505214368274Q1163.722748744913 399.9540132424298 1156.1790987839365 403.8041847358659Q1148.6130641049751 407.67674094728693 1140.2859490145204 407.67674094728693L1140.2859490145204 407.67674094728693Q1134.9360014160834 407.67674094728693 1129.8099009974972 405.77403991855397Q1124.706185296896 403.89372360780624 1119.8934709301006 399.9540132424298Q1115.1031412812908 396.0143028770534 1112.1931279432288 388.62734594197275Q1109.2831146051667 381.21800428890697 1109.2831146051667 371.4582672474064ZM1152.3960814444558 354.7816523485121L1152.3960814444558 354.7816523485121Q1152.3960814444558 352.7446430118687 1146.889440820123 348.4020077227606Q1141.3828001957902 344.0817571516377 1135.4060804937703 344.0817571516377L1135.4060804937703 344.0817571516377Q1128.3101248924957 344.0817571516377 1124.1465673472685 350.2151698795532Q1119.9830098020411 356.34858260746864 1119.9830098020411 367.0708625223282L1119.9830098020411 367.0708625223282Q1119.9830098020411 368.3244067294934 1120.7664749315195 368.3244067294934L1120.7664749315195 368.3244067294934Q1121.0798609833107 368.3244067294934 1135.7866206995168 362.5715342073245Q1150.515765133708 356.8186616851556 1150.985844211395 356.66196865925997L1150.985844211395 356.66196865925997Q1152.3960814444558 355.8785035297817 1152.3960814444558 354.7816523485121ZM1183.0855298020183 345.8053804364898L1177.8922752294768 345.8053804364898Q1174.601721685668 345.8053804364898 1174.601721685668 343.7683710998464L1174.601721685668 343.7683710998464Q1174.601721685668 342.8282129444724 1176.8849629201477 340.8583577617843Q1179.1682041546271 338.8885025790961 1183.3989158538097 334.2548659561818Q1187.6520122709774 329.5988446152825 1191.435029610458 323.3087388614713L1191.435029610458 323.3087388614713Q1193.1586528953103 320.30918665146885 1194.591274846356 320.30918665146885L1194.591274846356 320.30918665146885Q1196.7849772088953 320.30918665146885 1196.7849772088953 322.99535280968007L1196.7849772088953 322.99535280968007Q1196.7849772088953 324.09220399094954 1196.695438336955 328.6586864599086Q1196.6282841829998 333.22516892886756 1196.6282841829998 334.32202011013715L1196.6282841829998 334.32202011013715Q1196.6282841829998 337.4782653460352 1199.7845294188978 337.4782653460352L1199.7845294188978 337.4782653460352L1214.245057237268 337.4782653460352Q1214.5808280070444 337.4782653460352 1215.0509070847313 337.54541949999054Q1215.5209861624182 337.6349583719309 1215.6776791883137 337.6349583719309L1215.6776791883137 337.6349583719309Q1219.7740825795859 337.6349583719309 1219.7740825795859 340.6121258639482Q1219.7740825795859 343.61167807395066 1218.3414606285398 345.3353013588029L1218.3414606285398 345.3353013588029Q1217.5579954990615 346.11876648828115 1215.5209861624182 346.11876648828115L1215.5209861624182 346.11876648828115L1196.6282841829998 346.11876648828115Q1195.0613539240433 346.11876648828115 1195.0613539240433 347.7080814652227L1195.0613539240433 347.7080814652227Q1195.0613539240433 360.758372050532 1194.9718150521028 369.42125791076296Q1194.9046608981475 378.08414377099393 1194.815122026207 381.06131126301136Q1194.7479678722518 384.0608634730138 1194.7479678722518 385.314407680179L1194.7479678722518 385.314407680179Q1194.7479678722518 397.2902318022037 1203.0750829627066 397.2902318022037L1203.0750829627066 397.2902318022037Q1206.3880212245003 397.2902318022037 1210.0143455380855 394.8502975418286Q1213.6182851336853 392.41036328145344 1216.3716054458519 389.9704290210783Q1219.1249257580182 387.5304947607033 1220.557547709064 387.5304947607033L1220.557547709064 387.5304947607033Q1221.8110919162293 387.5304947607033 1222.684095917648 388.47065291607714Q1223.5347152010816 389.410811071451 1223.5347152010816 390.5076622527206L1223.5347152010816 390.5076622527206Q1223.5347152010816 391.44782040809446 1222.437864019812 393.1938284109317L1222.437864019812 393.1938284109317Q1209.700959486294 407.67674094728693 1199.9412224447935 407.67674094728693L1199.9412224447935 407.67674094728693Q1194.0988110506842 407.67674094728693 1189.3084814018744 403.0207196063876Q1184.5181517530643 398.3870829834733 1183.712301905601 388.1572668642858L1183.712301905601 388.1572668642858Q1183.5556088797052 386.4112588614486 1183.5556088797052 382.9640122917442L1183.5556088797052 382.9640122917442Q1183.5556088797052 379.0243019263679 1183.8689949314967 363.82507841448967Q1184.2047657012731 348.64823962059666 1184.2047657012731 347.23800238753574Q1184.2047657012731 345.8053804364898 1183.0855298020183 345.8053804364898L1183.0855298020183 345.8053804364898Z " fill="##000000" transform="matrix(0.7151410989709609,0,0,0.7151410989709609,0,39.917778520857)"/></g></svg>